<svg xmlns="http://www.w3.org/2000/svg" xmlns:xlink="http://www.w3.org/1999/xlink" viewBox="0 0 841.89 595.28"><defs><style>.cls-1{fill:#8e8e8e;opacity:0.12;}.cls-2{fill:#f35;}.cls-3{fill:#184655;}.cls-4{fill:#5bcdf4;}.cls-5{fill:#29abe2;}.cls-6{fill:#7bddff;}.cls-7{fill:#f79c8d;}.cls-8{fill:#3c8f7c;}.cls-9{fill:#327f6b;}.cls-10{fill:url(#Nueva_muestra_de_degradado_2);}.cls-11{fill:#f9b233;}.cls-12{fill:#008d36;}.cls-13{fill:url(#Degradado_sin_nombre_12);}.cls-14{opacity:0.43;}.cls-15{fill:#82b531;}.cls-16{fill:#f7a491;}.cls-17,.cls-27,.cls-28{fill:none;}.cls-18{fill:#ed1c24;}.cls-19{fill:#c1272d;}.cls-20{fill:#f39200;}.cls-21{fill:#36a9e1;}.cls-22,.cls-33{fill:#fff;}.cls-23{fill:#95c11f;}.cls-24{opacity:0.47;}.cls-25{fill:#1d1d1b;}.cls-26{fill:#ed7a6e;}.cls-27,.cls-28{stroke:#ff595a;stroke-linecap:round;stroke-linejoin:round;stroke-width:3px;}.cls-27{stroke-dasharray:0 6.02;}.cls-29{fill:url(#Nueva_muestra_de_degradado_2-2);}.cls-30{fill:url(#Nueva_muestra_de_degradado_2-3);}.cls-31{fill:url(#Nueva_muestra_de_degradado_2-4);}.cls-32{fill:url(#Nueva_muestra_de_degradado_2-5);}.cls-33{stroke:#fff;stroke-miterlimit:10;stroke-width:0.25px;}.cls-34{fill:url(#Nueva_muestra_de_degradado_2-6);}.cls-35{fill:url(#Nueva_muestra_de_degradado_2-7);}.cls-36{fill:url(#Nueva_muestra_de_degradado_2-8);}.cls-37{fill:url(#Nueva_muestra_de_degradado_2-9);}.cls-38{fill:url(#Nueva_muestra_de_degradado_2-10);}.cls-39{fill:url(#Nueva_muestra_de_degradado_2-11);}</style><linearGradient id="Nueva_muestra_de_degradado_2" x1="564.83" y1="531.74" x2="629.23" y2="531.74" gradientUnits="userSpaceOnUse"><stop offset="0" stop-color="#f35"/><stop offset="0.15" stop-color="#fa3154"/><stop offset="0.34" stop-color="#ea2a51"/><stop offset="0.56" stop-color="#d0204d"/><stop offset="0.79" stop-color="#ac1147"/><stop offset="1" stop-color="#840040"/></linearGradient><linearGradient id="Degradado_sin_nombre_12" x1="394.45" y1="250.84" x2="506.34" y2="250.84" gradientUnits="userSpaceOnUse"><stop offset="0" stop-color="#f35"/><stop offset="0.61" stop-color="#fd3255"/><stop offset="0.68" stop-color="#f72f54"/><stop offset="0.77" stop-color="#e42650"/><stop offset="0.87" stop-color="#c71749"/><stop offset="0.99" stop-color="#9e0241"/><stop offset="1" stop-color="#9a0040"/></linearGradient><linearGradient id="Nueva_muestra_de_degradado_2-2" x1="256.04" y1="331.65" x2="313.37" y2="331.65" xlink:href="#Nueva_muestra_de_degradado_2"/><linearGradient id="Nueva_muestra_de_degradado_2-3" x1="211.03" y1="272.35" x2="268.36" y2="272.35" xlink:href="#Nueva_muestra_de_degradado_2"/><linearGradient id="Nueva_muestra_de_degradado_2-4" x1="199.13" y1="198.4" x2="256.46" y2="198.4" xlink:href="#Nueva_muestra_de_degradado_2"/><linearGradient id="Nueva_muestra_de_degradado_2-5" x1="223.14" y1="126.44" x2="280.47" y2="126.44" xlink:href="#Nueva_muestra_de_degradado_2"/><linearGradient id="Nueva_muestra_de_degradado_2-6" x1="283.71" y1="78.22" x2="341.04" y2="78.22" xlink:href="#Nueva_muestra_de_degradado_2"/><linearGradient id="Nueva_muestra_de_degradado_2-7" x1="362.47" y1="60.26" x2="419.8" y2="60.26" xlink:href="#Nueva_muestra_de_degradado_2"/><linearGradient id="Nueva_muestra_de_degradado_2-8" x1="436.69" y1="83.99" x2="494.02" y2="83.99" xlink:href="#Nueva_muestra_de_degradado_2"/><linearGradient id="Nueva_muestra_de_degradado_2-9" x1="486.21" y1="141.85" x2="543.54" y2="141.85" xlink:href="#Nueva_muestra_de_degradado_2"/><linearGradient id="Nueva_muestra_de_degradado_2-10" x1="501.69" y1="214.47" x2="559.02" y2="214.47" xlink:href="#Nueva_muestra_de_degradado_2"/><linearGradient id="Nueva_muestra_de_degradado_2-11" x1="325.34" y1="365.51" x2="486.21" y2="365.51" xlink:href="#Nueva_muestra_de_degradado_2"/></defs><g id="Capa_1" data-name="Capa 1"><path class="cls-1" d="M687.66,534.92c0,2.32-105.25,4.2-235.08,4.2-19.18,0-37.82,0-55.66-.12h-1.84c-11.08,0-21.85-.11-32.24-.19-24.15-.17-46.26-.42-65.57-.73q-8.65-.14-16.52-.28c-39.24-.76-63.26-1.76-63.26-2.87s25-2.15,65.72-2.9c5.33-.1,10.94-.2,16.8-.29,18.81-.28,40.2-.52,63.45-.69,10.63-.08,21.65-.14,33-.19,18-.08,36.77-.12,56.12-.12C582.41,530.73,687.66,532.61,687.66,534.92Z"/><path class="cls-2" d="M403.09,557.94c-5.54,0-19.52-1.19-22.92-.89s-15.39,2-17,2-4.19-4.19,0-6.13,24-8.51,26.14-14.66a14.35,14.35,0,0,0,.49-4.8c0-.31,0-.62,0-1A61.64,61.64,0,0,0,389,526c0-.33-.11-.68-.17-1-.36-2-.8-4.15-1.3-6.29l-.23-1c-.44-1.81-.91-3.64-1.41-5.45-.1-.32-.18-.64-.28-1a124.48,124.48,0,0,0-4-11.91C377,487.68,399,490.73,399,490.73s2.93,11.56,4.33,19.78c.05.36.11.71.17,1.06.24,1.53.42,2.92.51,4l.06.94c0,.32,0,.63.07,1,.14,1.92.28,4.1.45,6.36,0,.41.06.83.09,1.25.16,2,.34,4.06.57,6,0,.48.11,1,.17,1.42a47.12,47.12,0,0,0,1.79,8.72s1.63,7.64,2,10.5S408.63,557.94,403.09,557.94Z"/><rect class="cls-3" x="358.88" y="425.76" width="5.92" height="135.77" transform="translate(98.26 -58.75) rotate(10.73)"/><path class="cls-3" d="M552.24,561.51h-7L527,463.22c.55-.46,1.08-.91,1.58-1.36a42,42,0,0,0,3.72-3.8Z"/><polygon class="cls-3" points="417.05 561.51 424.05 561.51 397.96 426.38 392.13 427.49 417.05 561.51"/><path class="cls-3" d="M496.82,480l-15.37,81.53-5.69.07,14.73-79.24Q493.75,481.2,496.82,480Z"/><path class="cls-4" d="M494.77,263.16c-1.2-.62-2.39-1.19-3.58-1.73C492.38,262,493.58,262.54,494.77,263.16Z"/><path class="cls-5" d="M490.84,438.7c-.94.83-1.95,1.68-3,2.53l-.36.28c-1.2.92-2.49,1.85-3.86,2.77h0l-.64.42q-2.82,1.86-6.08,3.71l-.14.08-.86.49,0,0c-3.1,1.71-6.46,3.38-10.05,5h0l-.19.1a48.59,48.59,0,0,0-.21,9v.05c0,.35.06.7.1,1.06-.27,2.87-.72,10.75,1.73,15.7.85,1.7,1.32,4.88,1.55,8.57a184.25,184.25,0,0,1-50.21,4q-2.91-.17-5.83-.45t-5.61-.64l-.91-.12a154.71,154.71,0,0,1-43.88-12.6c-2.38-1.09-4.76-2.25-7.12-3.49q-3.92-2-7.77-4.36s-.42-.26-1.16-.75l-.57-.38a3.46,3.46,0,0,0-.4-.29l-.37-.27-.82-.61c-.28-.21-.6-.44-.92-.7a70.22,70.22,0,0,1-7.72-7q-.61-.63-1.23-1.32l0,0c-10.37-11.48-21-31.26-7.64-57.37,33.82-66,29.05-79.72,44.17-105.57S407.11,239.16,456,244.4c7.32.78,15.33,1.58,23.8,3.94,7.05,7.28,14.18,16.66,21.34,28.79C533.91,332.68,516.68,415.65,490.84,438.7Z"/><path class="cls-6" d="M532.27,458.06a42,42,0,0,1-3.72,3.8c-.5.45-1,.9-1.58,1.36C520,469,509.63,474.92,496.82,480q-3.07,1.22-6.33,2.36a185.34,185.34,0,0,1-21.56,6.09l-.19,0c-.23-3.69-.7-6.87-1.55-8.57-2.45-4.95-2-12.83-1.73-15.7,0-.36-.07-.71-.1-1.06v-.05a48.59,48.59,0,0,1,.21-9l.19-.1h0c3.59-1.62,7-3.29,10.05-5l0,0,.86-.49.14-.08q3.25-1.85,6.08-3.71l.64-.42h0c1.37-.92,2.66-1.85,3.86-2.77l.36-.28c1.09-.85,2.1-1.7,3-2.53,25.84-23.05,43.07-106,10.34-161.57C494,265,486.89,255.62,479.84,248.34l1.72.49.86.26c.57.18,1.16.37,1.73.57l1.06.36c.22.09.45.16.69.25,1.16.43,2.33.88,3.51,1.38l1.53.66.25.12c1.19.54,2.38,1.11,3.59,1.73l1.8,1c.6.34,1.21.68,1.81,1l.92.55a81.62,81.62,0,0,1,7.35,5c.23.16.44.33.67.52.45.34.91.71,1.35,1.08l1.5,1.23q3.23,2.73,6.46,6c.41.41.81.82,1.21,1.24a.47.47,0,0,1,.12.13c.45.46.9.93,1.34,1.41s.78.86,1.16,1.29c1.16,1.28,2.32,2.63,3.47,4l.93,1.14,1.39,1.76,1.46,1.88q1.26,1.69,2.54,3.49c2.86,4,5.74,8.46,8.61,13.34C570,353.13,555.94,430.77,532.27,458.06Z"/><path class="cls-6" d="M468.74,488.47a184.25,184.25,0,0,1-50.21,4q-2.91-.17-5.83-.45t-5.61-.64l-.91-.12a154.71,154.71,0,0,1-43.88-12.6c-2.38-1.09-4.76-2.25-7.12-3.49q-3.92-2-7.77-4.36s-.42-.26-1.16-.75l-.57-.38a3.46,3.46,0,0,0-.4-.29l-.37-.27-.82-.61c-.28-.21-.6-.44-.92-.7a70.22,70.22,0,0,1-7.72-7q-.61-.63-1.23-1.32l0,0A155.37,155.37,0,0,0,353,465.19l2,.45a170.5,170.5,0,0,0,49,3.51l.53,0,.35,0,2.1-.16A184.08,184.08,0,0,0,465.76,454l-.19.1a48.59,48.59,0,0,0-.21,9v.05c0,.35.06.7.1,1.06-.27,2.87-.72,10.75,1.73,15.7C468,481.6,468.51,484.78,468.74,488.47Z"/><polygon class="cls-7" points="383.82 334.19 377.52 353.09 396.72 345.54 383.82 334.19"/><polygon class="cls-7" points="411.31 338.77 413.02 338.77 438.85 402.03 437.07 401.76 411.31 338.77"/><path class="cls-8" d="M594,464.46c-.51-4.47-1.11-9-3.19-13-2.52-4.86-7-8.37-10.84-12.23a67.83,67.83,0,0,1-16.18-25.78c-2.59-7.48-3.88-15.45-7.44-22.51-2.18-4.32-5.15-8.17-7.63-12.32-5.85-9.81-9-21.4-17-29.61a35.57,35.57,0,0,0,8,28.15c1.95,2.28,4.22,4.33,5.71,6.94,2.7,4.73,2.45,10.51,2.77,15.95a70,70,0,0,0,8.37,29.31c5.21,9.56,12.72,18.07,15.5,28.59,2.08,7.88,1.46,16.73,5.91,23.56a6,6,0,0,1,1.15,2.36,4.92,4.92,0,0,1-.09,1.48l-.3,1.91c-1,6.45-2.05,14.66,3.49,19.49,3.85,3.35,8.79,3.42,11.55-1s2.53-11,2.33-16.07C595.88,481.22,595,472.8,594,464.46Z"/><path class="cls-9" d="M604,459.27c-2.16-7.47-5.51-14.58-7.18-22.17-1.63-7.37-1.64-15-1.65-22.52q0-12.4,0-24.8a93.17,93.17,0,0,0-.86-15.4c-1.83-10.91-7.5-21-8.46-32-.42-4.77.06-9.59-.46-14.35a22.62,22.62,0,0,0-2.26-7.91,3.51,3.51,0,0,0-6.31.18c-2.76,6-4.51,12.43-3.4,18.83.67,3.84,2.33,7.42,3.58,11.11,5.52,16.44,2.59,34.64,6.87,51.46,1.29,5.07,3.24,10,3.47,15.28.54,12.52-8.81,24-8,36.47.71,10.25,8.08,18.74,11.17,28.54,1.74,5.48,2.11,11.34,4,16.78,1.44,4.23,4.8,9.37,10,8.08,5-1.22,3.45-5.25,3.23-9.11C607,484.66,607.71,472,604,459.27Z"/><path class="cls-8" d="M615.35,466.12c-.22-3.88-.88-7.78-.33-11.63.46-3.26,1.75-6.32,2.67-9.47,1.73-5.9,2.16-12.1,2.58-18.24q1.15-16.72,2.29-33.47c1.19-17.34,2.38-34.74,5.62-51.81.9-4.75,1.91-9.88-.22-14.21-.45-.92-1.33-1.88-2.3-1.58-.69.22-1,1-1.28,1.66-7.09,19.26-9.77,40-17.68,58.94-1.9,4.54-4.1,9-5.08,13.82-1.18,5.79-.53,11.77-.38,17.67a83.23,83.23,0,0,1-3,25.14c-1.22,4.26-2.86,8.42-3.53,12.8-.83,5.47-.13,11,.39,16.53a252.58,252.58,0,0,1,1,31.84c-.19,6.24,5.08,6.07,8.57,2.24,2.44-2.68,2.42-5.63,3.25-9C610.74,486.42,616,478,615.35,466.12Z"/><path class="cls-9" d="M584.07,483.05c-4.66-7.49-14-11.75-16.92-20.05-.76-2.11-1.06-4.39-2-6.43-2.06-4.54-6.74-7.11-11.33-9.2a1,1,0,0,0-1.38.88h0a3.34,3.34,0,0,0,1.44,2.8,18.61,18.61,0,0,1,7.43,10.13c1.42,4.87.81,10.21,2.57,15,1.48,4,4.53,7.25,6,11.26,1.31,3.66,1.17,7.66,1.78,11.5s2.33,7.92,5.85,9.55C590.27,514.33,587.08,487.89,584.07,483.05Z"/><path class="cls-8" d="M627.14,480.58c-.2,3.62.35,7.41-1.06,10.75-.91,2.13-2.54,3.86-3.88,5.75-4.7,6.65-6.4,16.06-13.62,19.81a2.5,2.5,0,0,1-1.54.36,2.34,2.34,0,0,1-1.52-1.54c-1.77-4.12.22-8.77,1.39-13.1a3.2,3.2,0,0,0,0-2.3c-.4-.77-1.3-1.1-1.92-1.7-1.23-1.2-1.12-3.19-.87-4.89a111.16,111.16,0,0,1,2.57-12.65,22.34,22.34,0,0,1,2.71-6.76c1.5-2.23,3.67-3.89,5.7-5.64a67.58,67.58,0,0,0,19.73-29.13c.84-2.43,1.58-5,3.31-6.9s4.79-2.88,6.89-1.41c1.49,1.06-4.62,10.9-5.34,12.08-2,3.37-2.06,6.3-3.21,10.05C633.67,462.53,627.68,470.75,627.14,480.58Z"/><path class="cls-10" d="M598.08,502H568c-2.06,0-3.57,2.18-3.1,4.45l11,52.32a3.29,3.29,0,0,0,3.09,2.77h36.11a3.29,3.29,0,0,0,3.1-2.77l11-52.32c.47-2.27-1-4.45-3.1-4.45Z"/><path class="cls-11" d="M480.58,340.56c-1.13,15.61-1.35,31.25-1.73,41.56-11.94,1.14-42.69,1.19-52,.64L415,343.64c-.22-.54,5.06-2.66,4.69-3.08C447.21,342.5,480.58,340.56,480.58,340.56Z"/><path class="cls-12" d="M490.59,293.92s-5.77,9.86-9,36.65c-.69,5.66-1.26,12.07-1.63,19.31,0,0-32.75,1.62-60.26-.32q-3.13-.22-6.15-.51l-1.79-.17c-3-.31-5.92-.68-8.64-1.11-1.55-.24-3.05-.51-4.47-.79a498.62,498.62,0,0,1,2.75-55.78l23-2.11h38.71C463.25,289.09,480.12,290.29,490.59,293.92Z"/><path class="cls-7" d="M463.12,289.09c-16.77,17.87-40,.33-40,.33.46-.11.9-.21,1.32-.33,4.73-1.31,6.82-3.36,7.72-5.15a5.77,5.77,0,0,0,.57-3.4l0-.16s19-12.58,20.1-3.41S463.12,289.09,463.12,289.09Z"/><path class="cls-13" d="M505.49,289.09h0l-46.9-2.47A14.05,14.05,0,0,1,452.8,277c-1.14-9.17-20.11,3.41-20.11,3.41a5.79,5.79,0,0,1-1.36,4.81l-35.43-1.87c-2.22-6.62-3.48-17,8.63-20.42,0,0-6.88-23.36,13.64-25.3,0,0-3.49-26.71,22.64-19.93,0,0,11.23-9.68,19.75-2.33s6.07,13.41,6,13.55c.27-.11,19.38-7.95,21.58,12.41,0,0,15.43-1.18,17.34,13.53S505.49,289.09,505.49,289.09Z"/><g class="cls-14"><path class="cls-15" d="M401.81,336.1a39.9,39.9,0,0,0,7.69,3.76,29.61,29.61,0,0,0,8.1,1.68,28.63,28.63,0,0,0,8.23-.75,51.3,51.3,0,0,0,8.1-2.82,22.58,22.58,0,0,1-7.53,4.66,21.54,21.54,0,0,1-8.94,1.37,21.93,21.93,0,0,1-8.72-2.38A20.33,20.33,0,0,1,401.81,336.1Z"/></g><g class="cls-14"><path class="cls-15" d="M443.05,338.21a46.26,46.26,0,0,0,7.81,3.48,29.67,29.67,0,0,0,8,1.55,28.54,28.54,0,0,0,8.11-.67l1-.19c.35-.06.67-.21,1-.29l2-.59c1.37-.41,2.67-1,4.13-1.42a27.83,27.83,0,0,1-3.44,2.85,22.49,22.49,0,0,1-4,2.08,20.57,20.57,0,0,1-9,1.46,21.09,21.09,0,0,1-8.82-2.45A19.42,19.42,0,0,1,443.05,338.21Z"/></g><path class="cls-16" d="M401.4,291.2s-16.48,1.82-16.17,47.3,13.4-1.24,13.4-1.24S400.07,301,401.4,291.2Z"/><polygon class="cls-11" points="488.13 387.19 488.05 414.62 422.52 400.9 419.83 373.37 464.75 368.26 488.13 387.19"/><polyline class="cls-17" points="395.9 274.32 431.33 276.19 458.59 277.62 505.49 280.09 505.49 280.09"/><path class="cls-2" d="M456.41,557.38c-8.93,3.64-15.19,3.68-15.66,2.59s-5.86-8.56-4.45-14.26a19.83,19.83,0,0,0,.3-5,.28.28,0,0,0,0-.08c0-.62-.35-3.79-.88-8.28,0-.28-.07-.56-.11-.86-.18-1.58-.41-3.31-.65-5.13a.78.78,0,0,1,0-.14c-.1-.74-.2-1.49-.31-2.26-.06-.32-.1-.66-.14-1l-.16-1.1q-.35-2.35-.72-4.77c-.06-.37-.11-.75-.18-1.11-.3-1.87-.63-3.76-1-5.61-.07-.35-.13-.71-.21-1.06a95.42,95.42,0,0,0-4-15.58c-5.14-13.11,21.1-8,21.1-8s.59,10.73,1.43,22.73c0,.39.06.78.08,1.18.13,1.88.27,3.78.42,5.67,0,.44.05.86.08,1.29.16,1.94.31,3.86.47,5.72,0,.3,0,.6.07.91a2.58,2.58,0,0,1,0,.29c.19,2.1.37,4.11.56,6a.22.22,0,0,1,0,.08l0,.54c0,.43.05.89.09,1.33a33.79,33.79,0,0,0,1.12,7.61c1.24,3.17,7.41,6.16,9.15,9.37S465.34,553.74,456.41,557.38Z"/><path class="cls-11" d="M491.11,423.93a54,54,0,0,1-1.06,7.82l-.06.31a92.83,92.83,0,0,1-2.55,9.45c-1.2.92-2.49,1.85-3.86,2.77h0l-.64.42q-2.82,1.86-6.08,3.71l-.14.08-.86.49,0,0c-3.1,1.71-6.46,3.38-10.05,5h0l-.19.1a48.59,48.59,0,0,0-.21,9v.05c0,.35.06.7.1,1.06-.27,2.87-.72,10.75,1.73,15.7.85,1.7,1.32,4.88,1.55,8.57.18,2.82.22,5.95.19,9-.05,5.9-.38,11.34-.51,13.15,0,.06,0,.1,0,.15v0s0,.08,0,.13h0s0,.08,0,.12,0,.19,0,.19c-7.39-2.09-26.61-2.34-41.78-1.51a41.65,41.65,0,0,1-8.07-8.27A63.55,63.55,0,0,1,412.7,492,96.89,96.89,0,0,1,407,477.93c-1.09-3.4-1.89-6.44-2.45-8.82-.62-2.66-.94-4.49-1-5l.5,5,.88,8.94,1.3,13.13.91,9.12,1.13,11.46c-9.7,2.66-40.79,0-40.79,0s1.2-11.52-1.19-17.55a41.1,41.1,0,0,0-3.94-6.63,72,72,0,0,1-7.12-12.49c-.07-.16-.14-.33-.2-.49a26.38,26.38,0,0,1-2-9.45c0-.31,0-.62,0-.93.45-12.82-7.34-32.38-7.34-32.38-13.35-27.11,22.64-31.09,22.64-31.09s80.84-8,110,1.59a20,20,0,0,1,5.8,2.93C489.79,409.49,491.55,416.22,491.11,423.93Z"/><path class="cls-16" d="M492.73,393.18a11.22,11.22,0,0,1-1.6,1.57,8.45,8.45,0,0,1-.75.52,5.24,5.24,0,0,1-.61.34,5.89,5.89,0,0,1-2.63.63,33.86,33.86,0,0,1-4.35-.3c-2-.26-4.29-.69-7.12-1.29-2.52-.54-5.49-1.22-9.09-2-3.81-.88-8.33-1.92-13.81-3.13-.73-.16-1.51-.31-2.31-.46-1.43-.26-2.92-.49-4.33-.71-1.7-.27-3.3-.52-4.54-.76a5.77,5.77,0,0,1-2.06-.8,6.09,6.09,0,0,0-2-1,6.26,6.26,0,0,0-.88-.14l-7.16,1.83c-1.39.36-3.58-.06-5-.25-1.93-.26-4.37-2.45-6.82-1.66a26.22,26.22,0,0,0-7.23,4.06c-3.42,2.56-6,5.12-6.69,4.57s.37-2.27,2.06-4.37a47,47,0,0,1,6.5-6.58c-4.14,2.71-9.63,6.45-12.15,6.85a2.87,2.87,0,0,1-.57,0,.84.84,0,0,1-.66-.35c-1.14-1.76,6.8-6.59,11-10.26l-3.34,1.69s-6.84,5.64-7.5,4.15,3.24-4.93,4.68-6.3c1.16-1.1,14.76-6.12,15.24-6.19a28.79,28.79,0,0,1,6.51.28c1.6.18,4.47,1,7.08,1.65.61.16,1.2.3,1.76.42a19.1,19.1,0,0,0,2.61.45l3.56.21c8.63.46,26.76,1.13,37.86.16.35-8.68,1-21.73,2.07-34.89.44-5.52.94-11.05,1.52-16.28,1.94-17.76,4.69-32.13,8.37-30.88C505.85,299.17,506.6,376.71,492.73,393.18Z"/><path class="cls-7" d="M457,269c-1.31,1.23-1.26,5.55-3,6.53a38.94,38.94,0,0,1-6,2.72,44,44,0,0,1-10.09,2.36,15.64,15.64,0,0,1-5.76-.26l-.27-.1c-4.57-.93-7-7.33-8.25-14.71-.13-.77-.25-1.54-.36-2.32a111,111,0,0,1-.89-11.76v-.34c0-.8,0-1.57,0-2.31v-.2c0-3.88.09-6.72.11-7.35a.68.68,0,0,0,0-.12h0c1.91-7,7.48-7.62,7.48-7.62,3.67-.39,6.57-3.51,6.57-3.51,2.95,5.81,10.71,5.44,15.86,7s4.78,9.68,4,13.54a14,14,0,0,0,.08,6.37s.66-8.16,5.65-6.61S464,262.45,457,269Z"/><path class="cls-7" d="M437.89,271.63s8,2,15.52-.94"/><path class="cls-18" d="M441.75,271.62c-2.1,1.17-7.33,2.89-9.75,2.55s-3.06-3.35-3.06-3.35c1.06-1.18,2.43-.26,3.12.05a3.37,3.37,0,0,0,2.42,0c.7-.29,1.39-.28,3.12,0s5.55-.52,5.55-.52S443.84,270.46,441.75,271.62Z"/><path class="cls-19" d="M443.15,270.44s-3.82.84-5.55.52-2.42-.34-3.12,0a3.37,3.37,0,0,1-2.42,0c-.69-.31-2.06-1.23-3.12-.05,0,0-1-3,.74-3.29s2.08.33,2.77.34,1.75-1.17,2.79-.85S440.38,270.1,443.15,270.44Z"/><path class="cls-11" d="M491.11,423.93c-.22,2.44-.55,5.06-1.06,7.82l-.06.31a91.94,91.94,0,0,1-2.19,9.17l-.36.28c-1.2.92-2.49,1.85-3.86,2.77h0l-.64.42q-2.82,1.86-6.08,3.71l-.14.08-.86.49c.73-15.78,4.1-39.14,4.1-39.14l4.18-4.54,3.28-3.57-1.2-4.6C486.86,396.52,492.65,405.8,491.11,423.93Z"/><path class="cls-20" d="M398.63,431.19a34.82,34.82,0,0,1-2.48-9.87,28.35,28.35,0,0,1,.66-10.35,16.2,16.2,0,0,1,2.19-4.88,13.12,13.12,0,0,1,3.85-3.79,12.69,12.69,0,0,1,5-1.85,17.3,17.3,0,0,1,5.13,0c-3.33.55-6.56,1.47-9,3.43a14.6,14.6,0,0,0-4.78,7.76,27.34,27.34,0,0,0-.86,4.71,46.49,46.49,0,0,0-.26,4.88A99.32,99.32,0,0,0,398.63,431.19Z"/><path class="cls-21" d="M404.11,517.5a16.14,16.14,0,0,1-2.91,1.07,25.08,25.08,0,0,1-5.42.8,30.78,30.78,0,0,1-5.43-.24c-1-.13-1.9-.28-2.84-.5l-.23-1c2.84-.23,5.63-.3,8.4-.44,1.75-.1,3.49-.14,5.22-.3,1.05-.1,2.09-.21,3.14-.36C404.07,516.87,404.09,517.18,404.11,517.5Z"/><path class="cls-22" d="M405.39,532.56q-.63.27-1.26.48a22.53,22.53,0,0,1-5.62,1.08,29,29,0,0,1-5.67-.14,26.49,26.49,0,0,1-3-.53c0-.31,0-.62,0-1,2.92-.22,5.76-.3,8.6-.54,1.8-.15,3.6-.25,5.37-.56.5-.07,1-.16,1.49-.26C405.27,531.62,405.33,532.09,405.39,532.56Z"/><path class="cls-23" d="M404.65,525.11c-.65.17-1.3.31-1.94.43a42.39,42.39,0,0,1-5.49.66,48.23,48.23,0,0,1-5.51,0c-.91-.05-1.83-.13-2.73-.25,0-.33-.11-.68-.17-1,.95-.16,1.91-.28,2.86-.4,1.81-.21,3.62-.37,5.42-.47s3.63-.16,5.45-.19h2C404.58,524.27,404.62,524.69,404.65,525.11Z"/><path class="cls-21" d="M451.32,516.63a19.6,19.6,0,0,1-2.12.59,31.7,31.7,0,0,1-6.36.86,35.05,35.05,0,0,1-6.4-.37c-.95-.14-1.91-.33-2.84-.56-.06-.37-.11-.75-.18-1.11h3.14c2.08,0,4.15-.06,6.21-.12s4.11-.19,6.17-.37c.77,0,1.53-.12,2.3-.21C451.26,515.78,451.29,516.2,451.32,516.63Z"/><path class="cls-23" d="M451.89,523.55a23.7,23.7,0,0,1-2.3.62,33,33,0,0,1-5.93.72,36.73,36.73,0,0,1-5.93-.32,29.79,29.79,0,0,1-3.11-.56c-.06-.32-.1-.66-.14-1,1.12-.06,2.22-.09,3.33-.12l5.79-.16,5.76-.23,2.43-.16c0,.3,0,.6.07.91A2.58,2.58,0,0,1,451.89,523.55Z"/><path class="cls-22" d="M452.58,531.48a16.91,16.91,0,0,1-1.73.6,25.8,25.8,0,0,1-5.81,1,36.58,36.58,0,0,1-5.83-.13,34,34,0,0,1-3.5-.54c0-.28-.07-.56-.11-.86,1.22-.11,2.43-.2,3.64-.28l5.66-.35c1.88-.12,3.75-.25,5.6-.48.66-.08,1.33-.17,2-.28C452.52,530.58,452.54,531,452.58,531.48Z"/><g class="cls-24"><path class="cls-20" d="M411.31,440.36a8.06,8.06,0,0,0,1.39.82c.47.25,1,.49,1.44.71,1,.45,2,.9,3,1.29,2,.81,4,1.51,6,2.12a50,50,0,0,0,12.52,2.11,35.83,35.83,0,0,0,6.3-.34,30.88,30.88,0,0,0,6.14-1.48,35.41,35.41,0,0,0,11-6.41,28.26,28.26,0,0,1-10.54,7.61,31.36,31.36,0,0,1-12.95,2.27,43.27,43.27,0,0,1-12.87-2.54,47.58,47.58,0,0,1-6-2.61c-1-.51-1.91-1.05-2.83-1.62A16.09,16.09,0,0,1,411.31,440.36Z"/></g><g class="cls-24"><path class="cls-20" d="M345.68,431.88a73,73,0,0,0,7.63,5.93,58.37,58.37,0,0,0,8.35,4.65,43.88,43.88,0,0,0,9,3.05L373,446l2.38.3c.4,0,.8.12,1.2.15l1.21.05c.8,0,1.61.08,2.43.13-.8.12-1.61.23-2.42.32l-1.23.14c-.4,0-.81,0-1.22,0l-2.47,0c-.82-.08-1.63-.2-2.45-.3-.41-.06-.82-.1-1.23-.17l-1.2-.28c-.8-.2-1.62-.35-2.41-.6l-2.34-.81c-.78-.27-1.52-.63-2.28-1a41.53,41.53,0,0,1-8.42-5.12A36.28,36.28,0,0,1,345.68,431.88Z"/></g><path class="cls-25" d="M436.47,254.24l.55.19.52.14c.13,0,.26.06.4.09a4.86,4.86,0,0,0,.55.1,2.83,2.83,0,0,0,.42.06c.16,0,.33,0,.5.06l.15,0,.39,0,.49,0h.61l.45,0,.57,0,.38-.05.3,0,.18,0,.37-.06.49-.11.35-.08.17,0a11.12,11.12,0,0,0,1.49-.56,10.81,10.81,0,0,0,2.7-1.65c-.47.23-.9.53-1.39.73l-.71.32c-.24.11-.49.18-.73.28-.48.19-1,.31-1.47.45l-.2,0a1.31,1.31,0,0,1-.27.06,5.41,5.41,0,0,1-.58.12l-.23,0-.24,0-.24,0-.39.06-.58.05-.28,0-.7,0h-.32a5.8,5.8,0,0,1-.59,0h-.78l-.15,0-.52,0H438l-.38,0-.48-.07Z"/><path class="cls-25" d="M436,255.41l0,0c.33-.14.64-.29.95-.45a1.86,1.86,0,0,0,.46-.25c.05-.06.11-.12.15-.18l.1-.15-.48-.07,0,0a.27.27,0,0,0-.1.06,3.73,3.73,0,0,0-.3.26C436.46,254.92,436.2,255.16,436,255.41Z"/><path class="cls-25" d="M437,255.83l0,0c.33-.23.65-.47,1-.71a2.5,2.5,0,0,0,.46-.39,0,0,0,0,0,0,0,1.13,1.13,0,0,0,.16-.26l-.52,0a1.19,1.19,0,0,0-.19.2l-.17.23C437.51,255.2,437.27,255.51,437,255.83Z"/><path class="cls-25" d="M438.48,255.89l0,0a7.57,7.57,0,0,0,.61-.66c.1-.11.23-.2.27-.34s0,0,0,0a.9.9,0,0,0,0-.34h-.29l-.17.14a.6.6,0,0,0-.09.15c0,.08-.06.16-.1.24A7.16,7.16,0,0,0,438.48,255.89Z"/><path class="cls-25" d="M439.71,256.11l0,0c.18-.27.34-.55.5-.83a1.39,1.39,0,0,0,.19-.36s0,0,0-.07a1.27,1.27,0,0,0,0-.34h-.32a.91.91,0,0,0-.13.16,1,1,0,0,0-.09.22,1.44,1.44,0,0,1-.05.24C439.83,255.47,439.76,255.79,439.71,256.11Z"/><path class="cls-25" d="M441.05,254.94v.14c0,.26,0,.52,0,.77h.05a7.54,7.54,0,0,0,.29-.74,1.54,1.54,0,0,0,.08-.19.26.26,0,0,0,0-.17.79.79,0,0,0-.06-.28l-.28,0a.72.72,0,0,0-.11.19A.54.54,0,0,0,441.05,254.94Z"/><path class="cls-25" d="M442.07,254.87v0c0,.26.1.53.16.8h0c.06-.27.12-.54.16-.8,0,0,0-.05,0-.08a.71.71,0,0,0,0-.32.78.78,0,0,0-.05-.14l-.39.06,0,.08A1,1,0,0,0,442.07,254.87Z"/><path class="cls-25" d="M442.84,254.5c0,.09.05.17.09.25v0c.08.17.16.34.26.51h0a3.7,3.7,0,0,0,.07-.57h0a.41.41,0,0,0,0-.27.53.53,0,0,0-.14-.17l-.23,0A.56.56,0,0,0,442.84,254.5Z"/><path class="cls-25" d="M443.67,254.31c0,.09.07.16.11.25v0a3.37,3.37,0,0,0,.25.45h0a3.19,3.19,0,0,0,.06-.52v0c0-.09,0-.19,0-.27a.55.55,0,0,0-.13-.14,1.31,1.31,0,0,1-.27.06A.64.64,0,0,0,443.67,254.31Z"/><path class="cls-26" d="M436.47,251.94a18.47,18.47,0,0,1,2.64-.94,14.32,14.32,0,0,1,2.74-.49,12.22,12.22,0,0,1,2.77,0,14.58,14.58,0,0,1,2.73.63,8.66,8.66,0,0,0-2.67-1l-.36-.08-.35,0-.72-.07a13.85,13.85,0,0,0-1.44,0,11.55,11.55,0,0,0-2.8.6A10.3,10.3,0,0,0,436.47,251.94Z"/><path class="cls-2" d="M434,249.78a9.3,9.3,0,0,1,3.56-3.64,11.21,11.21,0,0,1,4.92-1.59,11.94,11.94,0,0,1,1.34,0,12.38,12.38,0,0,1,1.35.15,8.68,8.68,0,0,1,2.57.87,7.27,7.27,0,0,1,3.57,3.8l-.16.18a12.52,12.52,0,0,0-1.9-1.26,9.63,9.63,0,0,0-1-.5,9.74,9.74,0,0,0-1.07-.39,11,11,0,0,0-2.22-.43,11.38,11.38,0,0,0-2.26,0,16.24,16.24,0,0,0-4.44,1,21.48,21.48,0,0,0-2.1.91,19.53,19.53,0,0,0-2,1.11Z"/><path class="cls-2" d="M415.62,251.47a6.93,6.93,0,0,1,2-3.83,8.22,8.22,0,0,1,3.9-2.21,7.09,7.09,0,0,1,4.71.49,5.56,5.56,0,0,1,2.93,3.37l-.15.19a10.2,10.2,0,0,0-1.57-1,7.12,7.12,0,0,0-1.72-.69,7.24,7.24,0,0,0-3.64,0,11,11,0,0,0-3.4,1.47,16.13,16.13,0,0,0-1.5,1.11,15.28,15.28,0,0,0-1.39,1.27Z"/><path class="cls-25" d="M429.22,254.27c-.14,0-.29.09-.44.12l-.41.08-.31.05-.43,0-.33,0h-.4a.22.22,0,0,1-.12,0,1.56,1.56,0,0,1-.3,0h-.39l-.46,0-.36,0a3.25,3.25,0,0,1-.43-.08l-.29-.06a1,1,0,0,1-.23-.05l-.14,0-.29-.07-.37-.11-.27-.09-.13,0-.76-.34v-.33c.28.13.59.24.88.35l.15,0,.2.06.44.13.18.05.19,0,.18,0a1.84,1.84,0,0,0,.3.07l.46.08.2,0,.55.06.25,0,.45,0h.09l.23,0,.29,0h.12c.13,0,.27,0,.4,0h.38c.13,0,.25,0,.38,0Z"/><path class="cls-25" d="M429.55,255.21l0,0c-.24-.12-.48-.26-.71-.4a1.33,1.33,0,0,1-.34-.22l-.11-.15a.54.54,0,0,1-.07-.13l.38,0h0l.07.06a1.52,1.52,0,0,1,.22.22C429.19,254.81,429.37,255,429.55,255.21Z"/><path class="cls-25" d="M428.7,255.48l0,0c-.25-.19-.48-.4-.71-.61a1.67,1.67,0,0,1-.33-.32h0a1.13,1.13,0,0,1-.12-.21h.41a1.07,1.07,0,0,1,.14.16l.12.19C428.36,255,428.53,255.21,428.7,255.48Z"/><path class="cls-25" d="M427.57,255.44l0,0a5.46,5.46,0,0,1-.43-.55c-.07-.09-.17-.17-.19-.28v0a.59.59,0,0,1,0-.27h.23l.12.12a.75.75,0,0,1,.07.12,1.06,1.06,0,0,0,.06.19C427.44,255,427.51,255.21,427.57,255.44Z"/><path class="cls-25" d="M426.6,255.54h0a6.16,6.16,0,0,1-.34-.68,1,1,0,0,1-.13-.29.08.08,0,0,1,0-.05.83.83,0,0,1,0-.27l.25,0,.09.13a1.21,1.21,0,0,1,.05.18c0,.06,0,.13,0,.19A5.9,5.9,0,0,1,426.6,255.54Z"/><path class="cls-25" d="M425.63,254.55s0,.07,0,.11a5.61,5.61,0,0,1-.06.59h0c-.07-.2-.13-.4-.18-.59a.75.75,0,0,1-.05-.16.19.19,0,0,1,0-.13.65.65,0,0,1,.07-.21l.21,0a.48.48,0,0,1,.08.16A.44.44,0,0,1,425.63,254.55Z"/><path class="cls-25" d="M424.84,254.43v0c0,.2-.11.4-.18.61h0c0-.21-.06-.42-.08-.63v-.06a.53.53,0,0,1,0-.25.49.49,0,0,1,0-.11l.3.07a.64.64,0,0,1,0,.07A.67.67,0,0,1,424.84,254.43Z"/><path class="cls-25" d="M424.26,254.1a.29.29,0,0,1-.08.19h0a2.88,2.88,0,0,1-.22.38h0a2.17,2.17,0,0,1,0-.44h0a.26.26,0,0,1,0-.21.34.34,0,0,1,.12-.12l.17,0A.3.3,0,0,1,424.26,254.1Z"/><path class="cls-25" d="M423.63,253.9c0,.07-.06.12-.1.19v0a2.1,2.1,0,0,1-.22.33h0a1.89,1.89,0,0,1,0-.41v0a.35.35,0,0,1,0-.2.36.36,0,0,1,.11-.1l.2.06A.43.43,0,0,1,423.63,253.9Z"/><path class="cls-26" d="M429.36,252.49a12.56,12.56,0,0,0-2-.88,12.07,12.07,0,0,0-2.1-.56,9.73,9.73,0,0,0-2.16-.12,7,7,0,0,0-.79.07v-.2a3.9,3.9,0,0,1,.77-.16l.28,0h.84a7.1,7.1,0,0,1,1.12.12,8.84,8.84,0,0,1,2.13.63A8.16,8.16,0,0,1,429.36,252.49Z"/><path class="cls-26" d="M428.3,261.74a3.85,3.85,0,0,0,1,1.75,4,4,0,0,0,1.84,1,3.56,3.56,0,0,0,2.12-.11,4.15,4.15,0,0,0,.91-.48,4.09,4.09,0,0,0,.74-.7c-.35,0-.65.13-1,.18a5.69,5.69,0,0,1-.89.11,4.76,4.76,0,0,1-1.65-.12A9.18,9.18,0,0,1,428.3,261.74Z"/><path class="cls-7" d="M455.9,271.54s-1.13,12,7.22,17.55l-13.9-.36-1.87-14.06Z"/><path class="cls-26" d="M446.55,278.77s-2.13,4.72-14.4,5.17a5.77,5.77,0,0,0,.57-3.4S436.77,281.73,446.55,278.77Z"/><circle class="cls-22" cx="458.19" cy="266.96" r="4.16"/><circle class="cls-23" cx="440.75" cy="307.14" r="2.09"/><circle class="cls-23" cx="439.75" cy="322" r="2.2"/><path class="cls-20" d="M398.81,449.6c1.67,5.37,3.37,10.7,5.14,16s3.66,10.54,5.75,15.69a139.46,139.46,0,0,0,7,15.07,72.1,72.1,0,0,0,4.42,7,41.83,41.83,0,0,0,5.45,6.32,31,31,0,0,1-6.39-5.56,53.83,53.83,0,0,1-5.13-6.8c-1.54-2.38-2.89-4.88-4.19-7.4s-2.39-5.13-3.47-7.74-2-5.28-2.9-7.95-1.7-5.38-2.41-8.11A121,121,0,0,1,398.81,449.6Z"/><path class="cls-26" d="M480.87,335.64c.23-.85,3.68,37.33,7.26,40.37,0,0-6.88-.25-9.79-.05C478.34,376,479.8,339.41,480.87,335.64Z"/><path class="cls-20" d="M465.36,463.09v.05c-2.3.79-4.63,1.45-7,2.06s-5,1.23-7.5,1.74-5.05.94-7.6,1.22a53.43,53.43,0,0,1-7.69.42l1.91-.21c.64-.07,1.27-.17,1.9-.26,1.27-.16,2.53-.36,3.79-.58,2.52-.42,5-.9,7.53-1.4s5-1,7.51-1.54Z"/></g><g id="Capa_2" data-name="Capa 2"><path class="cls-27" d="M388.22,366.41A152.67,152.67,0,0,0,532.83,218"/><path class="cls-27" d="M532.67,206A152.65,152.65,0,0,0,384.23,61.38"/><path class="cls-27" d="M372.24,61.53A152.65,152.65,0,0,0,227.64,210"/><path class="cls-27" d="M227.79,222A152.65,152.65,0,0,0,376.23,366.57"/><path class="cls-28" d="M380.23,366.62h0M227.58,214h0M380.23,61.33h0M532.88,214h0"/><path class="cls-29" d="M313.37,331.64A28.67,28.67,0,1,1,284.71,303,28.69,28.69,0,0,1,313.37,331.64Z"/><path class="cls-22" d="M305.3,336.39a38.29,38.29,0,0,0-1.14-7.48,28.14,28.14,0,0,0-2.31-6.28c-3.58-6.29-7.52-5.25-12.07-4.05l-.4.1a30.71,30.71,0,0,1-4.39.84h-.54a30.46,30.46,0,0,1-4.41-.84l-.48-.12c-4.72-1.19-8.46-2.14-12,4.13a26.54,26.54,0,0,0-2.31,6.27,38.29,38.29,0,0,0-1.14,7.48,13.87,13.87,0,0,0,.71,5.82,3.8,3.8,0,0,0,2.36,2.23,4.93,4.93,0,0,0,3.2-.36,24.1,24.1,0,0,0,6.57-4.68c1.54-1.49,4.44-2.38,7.75-2.38s6.21.89,7.75,2.38a24,24,0,0,0,6.57,4.68,5.28,5.28,0,0,0,3.19.36,3.76,3.76,0,0,0,2.37-2.28A13.79,13.79,0,0,0,305.3,336.39Zm-2.13,5.24a2.24,2.24,0,0,1-1.36,1.41,2.48,2.48,0,0,1-.63.07,4.66,4.66,0,0,1-1.62-.34,21.07,21.07,0,0,1-6.07-4.34c-1.82-1.82-5.1-2.9-8.78-2.9s-6.94,1.05-8.84,2.8a21.12,21.12,0,0,1-6.07,4.34,3.27,3.27,0,0,1-2.25.26,2.22,2.22,0,0,1-1.36-1.4,12.61,12.61,0,0,1-.53-5.06,35.83,35.83,0,0,1,1.1-7.19,24.24,24.24,0,0,1,2.19-5.9c2.94-5.29,6.52-4.35,10.32-3.35a29.7,29.7,0,0,0,5,1h.76a29.88,29.88,0,0,0,5.09-1l.1,0c3.92-1,7.32-1.83,10.21,3.38a24.57,24.57,0,0,1,2.2,5.9,40,40,0,0,1,1.09,7.19A12.17,12.17,0,0,1,303.17,341.63Z"/><path class="cls-22" d="M279.81,326.41a3,3,0,0,0-1.75-.83h-.16v-.16a2.77,2.77,0,0,0-.78-1.7l-.05,0a2.77,2.77,0,0,0-2-.83,2.86,2.86,0,0,0-2.82,2.58v.16h-.16a2.91,2.91,0,0,0-1.75.78l-.05.05a2.77,2.77,0,0,0-.83,2,2.91,2.91,0,0,0,.83,2,2.73,2.73,0,0,0,1.8.83h.16v.16a2.6,2.6,0,0,0,.82,1.74,2.81,2.81,0,0,0,2,.83,2.86,2.86,0,0,0,2.82-2.57v-.16h.16a2.6,2.6,0,0,0,1.74-.82,2.78,2.78,0,0,0,.84-2A2.89,2.89,0,0,0,279.81,326.41Zm-1,2.9a1.25,1.25,0,0,1-.91.37h-.73a.79.79,0,0,0-.79.79v.68a1.25,1.25,0,0,1-1.28,1.27,1.21,1.21,0,0,1-.91-.37,1.25,1.25,0,0,1-.37-.9v-.73a.79.79,0,0,0-.79-.8h-.73a1.25,1.25,0,0,1-.91-2.13l.05-.05a1.39,1.39,0,0,1,.86-.32H273a.79.79,0,0,0,.79-.8v-.72a1.29,1.29,0,0,1,2.19-.91l0,.05a1.44,1.44,0,0,1,.32.86v.72a.79.79,0,0,0,.79.8h.73a1.21,1.21,0,0,1,.91.37,1.3,1.3,0,0,1,0,1.82Z"/><path class="cls-22" d="M295.35,324.72a1.63,1.63,0,1,1-1.62-1.62A1.63,1.63,0,0,1,295.35,324.72Z"/><circle class="cls-22" cx="293.73" cy="332.08" r="1.63"/><circle class="cls-22" cx="290.04" cy="328.4" r="1.63"/><path class="cls-22" d="M299,328.4a1.63,1.63,0,1,1-1.62-1.63A1.63,1.63,0,0,1,299,328.4Z"/><path class="cls-30" d="M268.36,272.35a28.67,28.67,0,1,1-28.67-28.66A28.7,28.7,0,0,1,268.36,272.35Z"/><path class="cls-22" d="M245.6,263.27H233.79a3.61,3.61,0,0,0-3.61,3.61v11.81a3.62,3.62,0,0,0,3.61,3.61H245.6a3.62,3.62,0,0,0,3.61-3.61V266.88A3.61,3.61,0,0,0,245.6,263.27ZM243,280.79h-6.68v-2.94H243Zm4.66-2.1a2.11,2.11,0,0,1-2.1,2.1h-1V277.1a.76.76,0,0,0-.76-.76H235.6a.75.75,0,0,0-.75.76v3.69h-1.06a2.11,2.11,0,0,1-2.1-2.1v-8.85h16Zm0-10.36h-16v-1.45a2.11,2.11,0,0,1,2.1-2.1H245.6a2.1,2.1,0,0,1,2.1,2.1Z"/><path class="cls-22" d="M246.85,259.05H232.5a6.46,6.46,0,0,0-6.46,6.46v14.35a6.47,6.47,0,0,0,6.46,6.47h14.35a6.47,6.47,0,0,0,6.47-6.47V265.51A6.47,6.47,0,0,0,246.85,259.05Zm5,20.81a5,5,0,0,1-5,5H232.5a5,5,0,0,1-4.95-5V265.51a5,5,0,0,1,4.95-4.95h14.35a5,5,0,0,1,5,4.95Z"/><path class="cls-22" d="M237.32,257.7a.76.76,0,0,1-.75-.75v-5.38a.76.76,0,1,1,1.51,0V257A.76.76,0,0,1,237.32,257.7Z"/><path class="cls-22" d="M241.2,257.7a.75.75,0,0,1-.75-.75v-5.38a.75.75,0,0,1,.75-.76.76.76,0,0,1,.76.76V257A.76.76,0,0,1,241.2,257.7Z"/><path class="cls-22" d="M244.61,257.9l-.13,0a.75.75,0,0,1-.61-.87l.83-4.77a.75.75,0,1,1,1.48.26l-.82,4.77A.77.77,0,0,1,244.61,257.9Z"/><path class="cls-22" d="M233.9,257.9a.75.75,0,0,1-.74-.63l-.83-4.72a.77.77,0,0,1,.62-.88.76.76,0,0,1,.87.62l.83,4.72a.76.76,0,0,1-.62.87Z"/><path class="cls-22" d="M241.19,294.76a.76.76,0,0,1-.75-.76v-5.38a.76.76,0,0,1,1.51,0V294A.76.76,0,0,1,241.19,294.76Z"/><path class="cls-22" d="M237.32,294.76a.76.76,0,0,1-.76-.76v-5.38a.76.76,0,0,1,.76-.75.75.75,0,0,1,.75.75V294A.75.75,0,0,1,237.32,294.76Z"/><path class="cls-22" d="M233.08,294H233a.76.76,0,0,1-.62-.88l.83-4.76a.76.76,0,1,1,1.49.26l-.83,4.76A.75.75,0,0,1,233.08,294Z"/><path class="cls-22" d="M245.44,293.91a.75.75,0,0,1-.74-.63l-.83-4.72a.77.77,0,0,1,.62-.88.76.76,0,0,1,.87.62l.82,4.72a.74.74,0,0,1-.61.87Z"/><path class="cls-22" d="M261.08,271.51H255.7a.76.76,0,0,1,0-1.51h5.38a.76.76,0,1,1,0,1.51Z"/><path class="cls-22" d="M261.08,275.38H255.7a.75.75,0,0,1-.75-.75.76.76,0,0,1,.75-.76h5.38a.76.76,0,0,1,.76.76A.75.75,0,0,1,261.08,275.38Z"/><path class="cls-22" d="M260.28,279.62h-.13l-4.77-.83a.75.75,0,1,1,.26-1.48l4.76.82a.76.76,0,0,1,.62.88A.74.74,0,0,1,260.28,279.62Z"/><path class="cls-22" d="M255.51,268.08a.75.75,0,0,1-.13-1.49l4.72-.83a.76.76,0,0,1,.87.62.74.74,0,0,1-.61.87l-4.72.82Z"/><path class="cls-22" d="M223.69,275.38h-5.38a.76.76,0,1,1,0-1.51h5.38a.76.76,0,0,1,0,1.51Z"/><path class="cls-22" d="M223.69,271.5h-5.38a.76.76,0,1,1,0-1.51h5.38a.76.76,0,0,1,0,1.51Z"/><path class="cls-22" d="M223.88,268.09h-.13l-4.76-.83a.76.76,0,1,1,.25-1.49l4.77.83a.76.76,0,0,1,.62.87A.77.77,0,0,1,223.88,268.09Z"/><path class="cls-22" d="M219.16,279.62a.74.74,0,0,1-.74-.62.76.76,0,0,1,.61-.88l4.72-.82a.76.76,0,1,1,.26,1.49l-4.72.82Z"/><path class="cls-31" d="M256.46,198.4a28.67,28.67,0,1,1-28.67-28.67A28.7,28.7,0,0,1,256.46,198.4Z"/><path class="cls-22" d="M237.62,185.58v-1.65a1.6,1.6,0,0,0-1.6-1.6H213.57a1.6,1.6,0,0,0-1.6,1.6v28.94a1.6,1.6,0,0,0,1.6,1.6H236a1.6,1.6,0,0,0,1.6-1.6v-1.66a12.9,12.9,0,0,0,0-25.63Zm-1.45,27.29a.15.15,0,0,1-.15.14H213.57a.15.15,0,0,1-.15-.14V183.93a.15.15,0,0,1,.15-.15H236a.15.15,0,0,1,.15.15Zm1.45-18.57a4.26,4.26,0,0,1,1.8,1.24,4.36,4.36,0,0,1,0,5.72,4.26,4.26,0,0,1-1.8,1.24v-.95a3.48,3.48,0,0,0,0-6.3Zm.54,4.1a2.08,2.08,0,0,1-.54,1.38V197A2.06,2.06,0,0,1,238.16,198.4Zm-.54,11.35V204a5.81,5.81,0,0,0,2.9-9.43,5.7,5.7,0,0,0-2.9-1.81V187a11.45,11.45,0,0,1,0,22.71Z"/><path class="cls-22" d="M221.13,193.42a2.65,2.65,0,0,0-2.94,2.93v3.58a2.95,2.95,0,0,0,5.89,0v-3.58A2.67,2.67,0,0,0,221.13,193.42Zm-1.26,2.93c0-.94.41-1.39,1.26-1.39s1.27.47,1.27,1.39v3.58c0,.92-.42,1.39-1.27,1.39s-1.26-.46-1.26-1.39Z"/><path class="cls-22" d="M230.85,200.07a2.7,2.7,0,0,1-3,2.81c-1.66,0-2.9-.87-2.9-1.64a.89.89,0,0,1,.75-.89,1,1,0,0,1,.61.34,2,2,0,0,0,1.49.63c.41,0,1.36-.11,1.36-1.11s-.77-1.2-1.65-1.58c-1.1-.46-2.34-1-2.34-2.7,0-2.36,2.31-2.54,3-2.54.1,0,2.43,0,2.43,1.07,0,.37-.26.89-.73.89a1.05,1.05,0,0,1-.47-.16,2.43,2.43,0,0,0-1.23-.31c-.5,0-1.34.12-1.34.93,0,.62.55.87,1.44,1.24C229.44,197.51,230.85,198.07,230.85,200.07Z"/><path class="cls-32" d="M280.47,126.45a28.67,28.67,0,1,1-28.66-28.67A28.7,28.7,0,0,1,280.47,126.45Z"/><path class="cls-17" d="M238.89,121.5a1.26,1.26,0,0,0-1.26,1.27v9.7a1.26,1.26,0,1,0,2.52,0v-9.7A1.27,1.27,0,0,0,238.89,121.5Zm0,0a1.26,1.26,0,0,0-1.26,1.27v9.7a1.26,1.26,0,1,0,2.52,0v-9.7A1.27,1.27,0,0,0,238.89,121.5Zm0,0a1.26,1.26,0,0,0-1.26,1.27v9.7a1.26,1.26,0,1,0,2.52,0v-9.7A1.27,1.27,0,0,0,238.89,121.5Zm12.68-1a6.14,6.14,0,1,0,6.14,6.14A6.15,6.15,0,0,0,251.57,120.51Zm0,10.53a4.39,4.39,0,1,1,4.39-4.39A4.4,4.4,0,0,1,251.57,131Zm0-7.14a2.75,2.75,0,1,0,2.75,2.75A2.75,2.75,0,0,0,251.57,123.9Zm0-3.39a6.14,6.14,0,1,0,6.14,6.14A6.15,6.15,0,0,0,251.57,120.51Zm0,10.53a4.39,4.39,0,1,1,4.39-4.39A4.4,4.4,0,0,1,251.57,131Zm0-7.14a2.75,2.75,0,1,0,2.75,2.75A2.75,2.75,0,0,0,251.57,123.9Zm-12.68-2.4a1.26,1.26,0,0,0-1.26,1.27v9.7a1.26,1.26,0,1,0,2.52,0v-9.7A1.27,1.27,0,0,0,238.89,121.5Zm29.16-3.39h-8.4a.81.81,0,0,1-.78-.59l-.84-2.85a2.07,2.07,0,0,0-2-1.48h-9a2.09,2.09,0,0,0-2,1.48l-.83,2.85a.83.83,0,0,1-.79.59h-7.4a1.92,1.92,0,0,0-1.92,1.92v15.22a1.92,1.92,0,0,0,1.92,1.91h32a1.92,1.92,0,0,0,1.91-1.91V120A1.92,1.92,0,0,0,268.05,118.11Zm-26.26,14.36a2.9,2.9,0,0,1-5.8,0v-9.7a2.9,2.9,0,0,1,5.8,0Zm9.78,2a7.79,7.79,0,1,1,7.78-7.79A7.79,7.79,0,0,1,251.57,134.44Zm15.87-12.37a.82.82,0,0,1-.82.82h-3.47a.82.82,0,0,1-.82-.82V120a.82.82,0,0,1,.82-.82h3.47a.82.82,0,0,1,.82.82Zm-15.87-1.56a6.14,6.14,0,1,0,6.14,6.14A6.15,6.15,0,0,0,251.57,120.51Zm0,10.53a4.39,4.39,0,1,1,4.39-4.39A4.4,4.4,0,0,1,251.57,131Zm0-7.14a2.75,2.75,0,1,0,2.75,2.75A2.75,2.75,0,0,0,251.57,123.9Zm-12.68-2.4a1.26,1.26,0,0,0-1.26,1.27v9.7a1.26,1.26,0,1,0,2.52,0v-9.7A1.27,1.27,0,0,0,238.89,121.5Zm0,0a1.26,1.26,0,0,0-1.26,1.27v9.7a1.26,1.26,0,1,0,2.52,0v-9.7A1.27,1.27,0,0,0,238.89,121.5Zm0,0a1.26,1.26,0,0,0-1.26,1.27v9.7a1.26,1.26,0,1,0,2.52,0v-9.7A1.27,1.27,0,0,0,238.89,121.5Zm0,0a1.26,1.26,0,0,0-1.26,1.27v9.7a1.26,1.26,0,1,0,2.52,0v-9.7A1.27,1.27,0,0,0,238.89,121.5Zm0,0a1.26,1.26,0,0,0-1.26,1.27v9.7a1.26,1.26,0,1,0,2.52,0v-9.7A1.27,1.27,0,0,0,238.89,121.5Z"/><path class="cls-17" d="M251.57,123.9a2.75,2.75,0,1,0,2.75,2.75A2.75,2.75,0,0,0,251.57,123.9Z"/><path class="cls-33" d="M268.05,116.47h-7.78l-.67-2.26a3.72,3.72,0,0,0-3.55-2.67h-9a3.73,3.73,0,0,0-3.56,2.67l-.66,2.26h-6.79a3.56,3.56,0,0,0-3.56,3.56v15.22a3.56,3.56,0,0,0,3.56,3.55h32a3.55,3.55,0,0,0,3.55-3.55V120A3.56,3.56,0,0,0,268.05,116.47ZM270,135.25a1.92,1.92,0,0,1-1.91,1.91h-32a1.92,1.92,0,0,1-1.92-1.91V120a1.92,1.92,0,0,1,1.92-1.92h7.4a.83.83,0,0,0,.79-.59l.83-2.85a2.09,2.09,0,0,1,2-1.48h9a2.07,2.07,0,0,1,2,1.48l.84,2.85a.81.81,0,0,0,.78.59h8.4A1.92,1.92,0,0,1,270,120Z"/><path class="cls-33" d="M251.57,118.86a7.79,7.79,0,1,0,7.78,7.79A7.79,7.79,0,0,0,251.57,118.86Zm0,13.93a6.14,6.14,0,1,1,6.14-6.14A6.15,6.15,0,0,1,251.57,132.79Z"/><path class="cls-22" d="M251.57,122.26a4.39,4.39,0,1,0,4.39,4.39A4.4,4.4,0,0,0,251.57,122.26Zm0,7.14a2.75,2.75,0,1,1,2.75-2.75A2.75,2.75,0,0,1,251.57,129.4Z"/><path class="cls-22" d="M251.57,131.11a4.46,4.46,0,1,1,4.45-4.46A4.46,4.46,0,0,1,251.57,131.11Zm0-8.79a4.33,4.33,0,1,0,4.33,4.33A4.33,4.33,0,0,0,251.57,122.32Zm0,7.14a2.81,2.81,0,1,1,2.82-2.81A2.82,2.82,0,0,1,251.57,129.46Zm0-5.5a2.69,2.69,0,1,0,2.69,2.69A2.69,2.69,0,0,0,251.57,124Z"/><path class="cls-33" d="M266.62,119.17h-3.47a.82.82,0,0,0-.82.82v2.08a.82.82,0,0,0,.82.82h3.47a.82.82,0,0,0,.82-.82V120A.82.82,0,0,0,266.62,119.17Zm-.57,2.33h-2.33v-.94h2.33Z"/><path class="cls-33" d="M238.89,119.87a2.9,2.9,0,0,0-2.9,2.9v9.7a2.9,2.9,0,0,0,5.8,0v-9.7A2.9,2.9,0,0,0,238.89,119.87Zm1.26,12.6a1.26,1.26,0,1,1-2.52,0v-9.7a1.26,1.26,0,1,1,2.52,0Z"/><path class="cls-34" d="M341,78.22a28.67,28.67,0,1,1-28.66-28.67A28.69,28.69,0,0,1,341,78.22Z"/><path class="cls-22" d="M312.43,83a.65.65,0,0,0,.64-.65v-.55a1.88,1.88,0,1,0-1.29,0v.55a.65.65,0,0,0,.65.65Zm0-3.55A.59.59,0,0,1,313,80a.6.6,0,1,1-.59-.59Zm0,0"/><path class="cls-22" d="M330.38,70.94a2.57,2.57,0,1,0-3.83-1.49l-3,1.73a13.25,13.25,0,0,0-10.47-6.05V61.67A2.65,2.65,0,0,0,315,59.1a2.57,2.57,0,1,0-5.13,0,2.65,2.65,0,0,0,1.92,2.57v3.46a13.25,13.25,0,0,0-10.47,6.05l-3-1.73a2.67,2.67,0,0,0-4.85-2.06,2.67,2.67,0,0,0,4.2,3.17l3,1.73a13.18,13.18,0,0,0,0,12.1l-3,1.74a2.69,2.69,0,0,0-4.43,1.19,2.51,2.51,0,0,0,2.46,3.23,2.73,2.73,0,0,0,2.6-1.94,2.55,2.55,0,0,0,0-1.37l3-1.74a13.22,13.22,0,0,0,10.47,6V95a2.65,2.65,0,0,0-1.92,2.57,2.57,2.57,0,1,0,5.13,0A2.65,2.65,0,0,0,313.07,95V91.55a13.22,13.22,0,0,0,10.47-6l3,1.74a2.46,2.46,0,0,0,0,1.37,2.66,2.66,0,0,0,4.82.68,2.6,2.6,0,0,0-1-3.54,2.64,2.64,0,0,0-3.19.38l-3-1.74a13.24,13.24,0,0,0,0-12.09l3-1.74a2.63,2.63,0,0,0,3.19.38Zm-1.93-3.33a1.28,1.28,0,1,1-.54,1.8,1.32,1.32,0,0,1,.54-1.8ZM297,69.41a1.38,1.38,0,1,1-.55-1.8,1.33,1.33,0,0,1,.55,1.8Zm.11,18.84a1.43,1.43,0,0,1-1.7,1,1.23,1.23,0,0,1-.9-1.55,1.45,1.45,0,0,1,1.38-1,1.24,1.24,0,0,1,1.22,1.59Zm30.85-1a1.37,1.37,0,0,1,2.37,1.37,1.38,1.38,0,0,1-2.48-.4,1.22,1.22,0,0,1,.11-1ZM311.15,59.1a1.28,1.28,0,1,1,1.28,1.37,1.32,1.32,0,0,1-1.28-1.37Zm2.56,38.49a1.29,1.29,0,1,1-1.28-1.37,1.33,1.33,0,0,1,1.28,1.37Zm10.66-19.25A11.95,11.95,0,1,1,312.43,66.4a12,12,0,0,1,11.94,11.94Zm0,0"/><path class="cls-22" d="M313.92,84.93h2.19a1.68,1.68,0,0,0,1.68-1.68V77.82a1.68,1.68,0,0,0-1.62-1.67V75a3.75,3.75,0,1,0-7.49,0v1.2a1.68,1.68,0,0,0-1.62,1.67v5.43a1.68,1.68,0,0,0,1.68,1.68h2.19a.64.64,0,0,0,.64-.64.64.64,0,0,0-.64-.64h-2.19a.41.41,0,0,1-.4-.4V77.82a.41.41,0,0,1,.4-.4h7.37a.41.41,0,0,1,.4.4v5.43a.41.41,0,0,1-.4.4h-2.19a.64.64,0,0,0-.64.64.64.64,0,0,0,.64.64Zm1-8.79H310V75a2.47,2.47,0,0,1,4.93,0Zm0,0"/><path class="cls-22" d="M312.43,67.81a10.53,10.53,0,1,0,10.41,12.13.64.64,0,0,0-.54-.73.63.63,0,0,0-.73.53,9.24,9.24,0,1,1,0-2.8.64.64,0,1,0,1.27-.19,10.54,10.54,0,0,0-10.41-8.94Zm0,0"/><path class="cls-35" d="M419.8,60.26a28.67,28.67,0,1,1-28.67-28.67A28.7,28.7,0,0,1,419.8,60.26Z"/><path class="cls-22" d="M405.28,60.26l0,0c2.44-2.95,3.77-5.86,3.77-8.19a4.83,4.83,0,0,0-.92-3c-1.67-2.22-5.41-2.86-10.26-1.77h0l0,0q-.1-.29-.24-.57l0,0,0,0a2.62,2.62,0,0,0-2.91-4.16h0l0,0A5.2,5.2,0,0,0,391.14,41a5.59,5.59,0,0,0-4,1.94,14.39,14.39,0,0,0-2.66,4.3l0,0h-.05c-4.86-1.09-8.59-.45-10.26,1.77-1.9,2.53-.83,6.7,2.84,11.15l0,0,0,0c-.16.19-.32.39-.47.59l0,0h0a2.62,2.62,0,0,0-2.57,4.3l0,0v0c-1,2.49-.91,4.62.25,6.17s3.18,2.29,5.95,2.29a20,20,0,0,0,4.31-.52h.05l0,0a14.21,14.21,0,0,0,2.66,4.29,5.11,5.11,0,0,0,8.05,0,13.81,13.81,0,0,0,2.66-4.29l0,0,0,0,.82.17h0v.05a2.62,2.62,0,0,0,2.47,2.22h.12a2.63,2.63,0,0,0,2.54-2v0h0a6.14,6.14,0,0,0,4.2-2.18c1.9-2.53.84-6.7-2.84-11.14Zm-6.86-11.63c4.12-.89,7.34-.41,8.61,1.28,1.43,1.91.42,5.44-2.64,9.21l0,.06-.05,0A36.86,36.86,0,0,0,399.84,55l0,0v0a33.81,33.81,0,0,0-1.44-6.29l0-.06ZM400,57.14V57l.11.1a33.18,33.18,0,0,1,3.26,3.13l0,0,0,0a36.78,36.78,0,0,1-3.26,3.13l-.11.09v-.15c.08-1,.11-2.1.11-3.11S400.11,58.19,400,57.14ZM383.78,55.8v0l0,0c.88-.66,1.74-1.27,2.55-1.8a45,45,0,0,1,4.76-2.7h.05a45.22,45.22,0,0,1,4.76,2.7q1.36.9,2.55,1.8l0,0v0a39.82,39.82,0,0,1,0,8.91v0l0,0c-.78.6-1.64,1.21-2.55,1.8a43.29,43.29,0,0,1-4.76,2.7h-.05a45.22,45.22,0,0,1-4.76-2.7c-.87-.57-1.73-1.18-2.55-1.8l0,0v0A40.22,40.22,0,0,1,383.78,55.8ZM397,49l0,0a29.77,29.77,0,0,1,1.18,4.64l0,.15-.13-.09c-.43-.31-.91-.64-1.41-1a43.71,43.71,0,0,0-3.8-2.23l-.11-.06.12-.06a33,33,0,0,1,4-1.43Zm-2.51-4.54a1.24,1.24,0,0,1,1.13-.74,1.22,1.22,0,0,1,1.22,1.21,1.25,1.25,0,0,1-.75,1.13,1.35,1.35,0,0,1-.47.09,1.18,1.18,0,0,1-.86-.36A1.23,1.23,0,0,1,394.48,44.45Zm-8.65,3.16c1.44-3.3,3.37-5.18,5.31-5.18a3.78,3.78,0,0,1,2.32.89l.05,0,0,0a2.58,2.58,0,0,0,0,3,2.61,2.61,0,0,0,2.85,1l.05,0,0,0,0,.06a.33.33,0,0,0,0,.06l0,.07-.08,0a36,36,0,0,0-5.24,2h-.05a35.54,35.54,0,0,0-5.24-2l-.07,0Zm-1.75,6.07A29.8,29.8,0,0,1,385.27,49l0,0h0a33.73,33.73,0,0,1,4.05,1.43l.12.06-.12.06c-1.3.68-2.58,1.43-3.8,2.23-.49.32-1,.65-1.41,1l-.12.09Zm-8.84-3.77c.85-1.13,2.57-1.72,4.84-1.72a18.45,18.45,0,0,1,3.77.44l.07,0,0,.06A32.62,32.62,0,0,0,382.46,55v0l0,0A36.59,36.59,0,0,0,378,59.13l-.05,0-.05-.06C374.83,55.35,373.81,51.82,375.24,49.91Zm7,13.46,0,.15-.12-.09a36.69,36.69,0,0,1-3.25-3.13l0,0,0,0a34.41,34.41,0,0,1,3.25-3.13l.12-.1,0,.15c-.07,1-.11,2.1-.11,3.12S382.17,62.32,382.24,63.37Zm-6.44-1.13a1.21,1.21,0,0,1,1.13.75,1.23,1.23,0,0,1-1.13,1.68,1.35,1.35,0,0,1-.47-.09,1.23,1.23,0,0,1-.74-1.13A1.21,1.21,0,0,1,375.8,62.24Zm8.05,9.64a17.6,17.6,0,0,1-3.75.44c-2.28,0-4-.59-4.86-1.73-1-1.35-.65-3.23-.16-4.56l0,0h0a2.62,2.62,0,0,0,2.57-4.32l0,0,0,0,.08-.1.08-.1.05-.06.05.05a38.36,38.36,0,0,0,4.46,4.1h0v0a32.52,32.52,0,0,0,1.44,6.28l0,.07Zm1.44-.36,0,0a29.4,29.4,0,0,1-1.19-4.63l0-.15.12.09c.49.34,1,.66,1.41,1a42,42,0,0,0,3.8,2.23l.12.06-.12.06a34,34,0,0,1-4.05,1.43Zm11.15,1.38c-1.43,3.3-3.36,5.18-5.3,5.18s-3.87-1.88-5.31-5.18l0-.06.07,0a35.09,35.09,0,0,0,5.24-2h.05a36.83,36.83,0,0,0,5.24,2l.07,0Zm1.75-6.06A29.37,29.37,0,0,1,397,71.47l0,0h-.06a33.27,33.27,0,0,1-4-1.43l-.12-.06.11-.06a42,42,0,0,0,3.8-2.23c.45-.29.93-.61,1.41-1l.13-.09Zm3.17,7.41a1.22,1.22,0,1,1,.47-2.34,1.22,1.22,0,0,1-.47,2.34ZM407,70.59a4.68,4.68,0,0,1-3.13,1.62h0l0,0a2.64,2.64,0,0,0-2.35-1.75h-.12A2.62,2.62,0,0,0,399,72l0,0h0l-.38-.07-.18,0,0-.07a33.51,33.51,0,0,0,1.44-6.28v0h0a38.36,38.36,0,0,0,4.46-4.1l.05-.05,0,.06c2.12,2.61,3.28,5.12,3.28,7.08A3.4,3.4,0,0,1,407,70.59Z"/><path class="cls-22" d="M394.79,56.6a5.36,5.36,0,0,0-1.67-1.13,5.29,5.29,0,0,0-2-.39,5.18,5.18,0,0,0,0,10.36,5,5,0,0,0,2-.41,5.16,5.16,0,0,0,1.67-8.43Zm-1,6.32a3.76,3.76,0,1,1,1.11-2.66A3.77,3.77,0,0,1,393.8,62.92Z"/><path class="cls-36" d="M494,84a28.67,28.67,0,1,1-28.67-28.67A28.7,28.7,0,0,1,494,84Z"/><path class="cls-22" d="M456.21,78.64a3.14,3.14,0,1,0,3.14,3.14,3.15,3.15,0,0,0-3.14-3.14Zm0,5a1.89,1.89,0,1,1,1.89-1.89,1.89,1.89,0,0,1-1.89,1.89Zm0,0"/><path class="cls-22" d="M468.78,71.73a3.14,3.14,0,1,0-3.14-3.14,3.14,3.14,0,0,0,3.14,3.14Zm0-5a1.89,1.89,0,1,1-1.89,1.88,1.88,1.88,0,0,1,1.89-1.88Zm0,0"/><path class="cls-22" d="M483.85,82.05V79.9a3.13,3.13,0,0,0-2.75-3.1l-6.71-7.6a4.08,4.08,0,0,0,0-.61,5.66,5.66,0,0,0-11.31,0c0,.1,0,.2,0,.3l-7.26,7.26A5.63,5.63,0,0,0,452.45,86V95.6h-3.77a.63.63,0,0,0-.63.63V100a.63.63,0,0,0,.63.63h23.86a.63.63,0,0,0,.63-.63V96.23a.63.63,0,0,0-.63-.63H460V86a5.55,5.55,0,0,0,1.81-5.08l6.67-6.67.32,0a7.81,7.81,0,0,0,1-.09l7.84,6.18v1.71a3.15,3.15,0,0,0-1.89,2.87V91.2a.63.63,0,0,0,.3.54.66.66,0,0,0,.61,0l2.51-1.26a.62.62,0,0,0,.35-.56v-4.4H482V90a.63.63,0,0,0,.35.56l2.51,1.26a.68.68,0,0,0,.62,0,.65.65,0,0,0,.29-.54V84.92a3.13,3.13,0,0,0-1.88-2.87ZM468.78,64.2a4.4,4.4,0,1,1-4.4,4.39,4.4,4.4,0,0,1,4.4-4.39Zm3.14,35.17H449.31V96.85h22.61ZM458.73,95.6h-5V86.84a5.63,5.63,0,0,0,5,0Zm-2.52-9.42a4.4,4.4,0,1,1,4.4-4.4,4.4,4.4,0,0,1-4.4,4.4Zm5.18-6.66a5.67,5.67,0,0,0-3.87-3.23l5.9-5.9A5.62,5.62,0,0,0,467,73.94ZM474,70.68l5.56,6.3a3.13,3.13,0,0,0-1.83,1.9l-6.57-5.18a5.67,5.67,0,0,0,2.84-3Zm4.8,9.22a1.89,1.89,0,1,1,3.77,0v1.88h-3.77Zm5.66,10.29-1.26-.63V84.92a.63.63,0,0,0-.63-.63h-3.77a.63.63,0,0,0-.62.63v4.64l-1.26.63V84.92A1.88,1.88,0,0,1,478.82,83h3.77a1.89,1.89,0,0,1,1.89,1.88Zm0,0"/><path class="cls-22" d="M455.59,89.32A.63.63,0,0,0,455,90v3.76a.63.63,0,1,0,1.25,0V90a.63.63,0,0,0-.62-.63Zm0,0"/><path class="cls-22" d="M462.68,73.17l-2.51,2.52a.6.6,0,0,0-.17.61.58.58,0,0,0,.44.44.6.6,0,0,0,.61-.17l2.52-2.51a.63.63,0,0,0,0-.88.64.64,0,0,0-.88,0Zm0,0"/><path class="cls-37" d="M543.54,141.85a28.67,28.67,0,1,1-28.66-28.66A28.7,28.7,0,0,1,543.54,141.85Z"/><path class="cls-22" d="M511.67,147.42a.74.74,0,0,1,.08,1.05.71.71,0,0,1-.56.26.79.79,0,0,1-.49-.17l-3.61-3.08a.78.78,0,0,1-.26-.57.77.77,0,0,1,.26-.57l3.61-3.07a.74.74,0,0,1,1.05.08.74.74,0,0,1-.08,1.05l-2.94,2.51Z"/><path class="cls-22" d="M522.67,144.91a.75.75,0,0,1-.26.57l-3.61,3.07a.7.7,0,0,1-.48.18.73.73,0,0,1-.57-.26.74.74,0,0,1,.08-1.05l2.95-2.51-2.95-2.51a.77.77,0,0,1-.26-.5.72.72,0,0,1,.18-.55.77.77,0,0,1,.51-.26.75.75,0,0,1,.54.18l3.61,3.07A.73.73,0,0,1,522.67,144.91Z"/><path class="cls-22" d="M516.46,139.76l-2.25,10.68a.77.77,0,0,1-.74.6l-.15,0a.71.71,0,0,1-.47-.32.74.74,0,0,1-.11-.56L515,139.45a.75.75,0,0,1,1.47.31Z"/><path class="cls-22" d="M527.91,126.66H501.6a3.94,3.94,0,0,0-3.94,3.93v22.34a3.94,3.94,0,0,0,3.94,3.93h26.31a3.94,3.94,0,0,0,3.94-3.93V130.59A3.94,3.94,0,0,0,527.91,126.66Zm2.44,26.27a2.45,2.45,0,0,1-2.44,2.44H501.6a2.45,2.45,0,0,1-2.45-2.44V136h31.2Zm0-18.45h-31.2v-3.89a2.45,2.45,0,0,1,2.45-2.44h26.31a2.45,2.45,0,0,1,2.44,2.44Z"/><path class="cls-22" d="M507.38,129.58a1.77,1.77,0,1,0,1.77,1.76A1.76,1.76,0,0,0,507.38,129.58Zm0,2.41a.65.65,0,1,1,.65-.65A.65.65,0,0,1,507.38,132Z"/><path class="cls-22" d="M502,129.56a1.77,1.77,0,1,0,1.76,1.77A1.77,1.77,0,0,0,502,129.56Zm0,2.42a.65.65,0,1,1,.65-.65A.65.65,0,0,1,502,132Z"/><path class="cls-22" d="M512.81,129.6a1.77,1.77,0,1,0,1.77,1.76A1.77,1.77,0,0,0,512.81,129.6Zm0,2.41a.65.65,0,1,1,.65-.65A.65.65,0,0,1,512.81,132Z"/><circle class="cls-38" cx="530.35" cy="214.47" r="28.67"/><path class="cls-22" d="M551.3,221a.74.74,0,0,1-.72-.64l-1.26-9a4.79,4.79,0,0,0-4.63-4.15L539.2,207h-.06a2.08,2.08,0,0,0-1.95,1.36l-8.67.62L527,205.87h.41a.7.7,0,0,0,.7-.7v-4.51a.7.7,0,0,0-.7-.71h-.42v-6.12a.71.71,0,0,0-.71-.71h-9a.71.71,0,0,0-.71.71V200h-.42a.71.71,0,0,0-.71.71v4.51a.71.71,0,0,0,.71.7h.42L514.45,210l-.88.06a2.06,2.06,0,0,0-1.93,2l-.15,5.55a1.46,1.46,0,0,0,.23.81,1.33,1.33,0,0,0,.53.46,1.36,1.36,0,0,0,1.46-.12l.26-.2a2.68,2.68,0,0,1,.3-.23v13.92a.7.7,0,0,0,.71.7h13.51a.71.71,0,0,0,.7-.7V220.39a.53.53,0,0,1,.1-.06.59.59,0,0,1,.4-.07c.29,0,.4.17.68.57A2.31,2.31,0,0,0,532,222a2.28,2.28,0,0,0,1.88-.67c.35-.29.5-.39.79-.35s.41.17.67.55a2.27,2.27,0,0,0,1.64,1.13l5.21.72A4.84,4.84,0,0,0,545.7,225l5.49.14h0a2.08,2.08,0,0,0,2.08-2v0A2.09,2.09,0,0,0,551.3,221Zm-12.18-11.24a.66.66,0,0,1,0-1.32h0l5.5.14a3.37,3.37,0,0,1,3.26,2.91l1.26,9.06a2.17,2.17,0,0,0,2.09,1.86.65.65,0,0,1,.46.2.66.66,0,0,1,0,.94.65.65,0,0,1-.47.17l-5.5-.13a3.39,3.39,0,0,1-3.26-2.93l-1.26-9a2.15,2.15,0,0,0-2.09-1.86ZM527,209.12l-3.5.24a.7.7,0,0,0-.63-.4h-.42v-3.09h2.93Zm-9-14.58h7.59V200h-7.59Zm-1.13,6.82h9.84v3.1h-9.84Zm1.29,4.51H521V209h-.42a.7.7,0,0,0-.71.66l-3.82.27Zm-5,6.25a.65.65,0,0,1,.61-.65l1.82-.12,5.64-.4,6.75-.48,9.32-.66a2.08,2.08,0,0,0,1.89,1.37.72.72,0,0,1,.72.63l.8,5.78-10.75-1.46L521.22,215,513,213.83Zm14.72,19.44h-12.1v-3.09h12.1Zm-6.89-11.51h0l.05,0,.08.08v6.87h-5.35v-7.92a2.08,2.08,0,0,0,1.38.79,2.29,2.29,0,0,0,1.88-.66c.35-.3.5-.4.8-.36s.41.18.67.57h0A3.82,3.82,0,0,0,520.89,220.05Zm6.89,7h-5.34v-6.43h0a2.44,2.44,0,0,0,1.47-.68c.36-.3.5-.39.79-.36s.4.18.67.55a2.29,2.29,0,0,0,1.64,1.15,2.17,2.17,0,0,0,.76,0Zm9.39-5.82c-.3,0-.41-.17-.67-.55a2.19,2.19,0,0,0-3.52-.48c-.36.3-.5.39-.79.36s-.41-.19-.67-.56a2.26,2.26,0,0,0-1.63-1.14,2,2,0,0,0-.74,0,2.69,2.69,0,0,0-1.17.66l-.3.23a.67.67,0,0,1-.47.11c-.29,0-.41-.18-.68-.58a2.3,2.3,0,0,0-1.63-1.12,2.27,2.27,0,0,0-1.88.66c-.28.24-.42.34-.6.36a1.2,1.2,0,0,1-.19,0c-.29,0-.4-.18-.66-.55-.1-.14-.21-.29-.35-.46l-.06-.06a2.08,2.08,0,0,0-1.21-.62h0a2.32,2.32,0,0,0-1.88.67c-.35.29-.5.39-.79.35s-.41-.19-.66-.55a2.93,2.93,0,0,0-.8-.84h0l-.28-.18v0a1.93,1.93,0,0,0-.55-.14,1.65,1.65,0,0,0-.7,0,2.51,2.51,0,0,0-1.17.64l-.07,0-.09.08.07-2.37,27.84,3.8.25,1.82a4.28,4.28,0,0,0,.23.92Z"/><path class="cls-22" d="M547.58,220l-.19-1.39v0l-.07-.54-.89-6.39a1.83,1.83,0,1,0-3.62.5l1.15,8.34a2,2,0,0,0,.3.76,1.83,1.83,0,0,0,1.47.82,1.89,1.89,0,0,0,1.41-.61A1.81,1.81,0,0,0,547.58,220Zm-1.21.78a.79.79,0,0,1-.61.25.78.78,0,0,1-.76-.67L543.83,212a.8.8,0,0,1,.2-.64.82.82,0,0,1,.61-.26.78.78,0,0,1,.76.69l.89,6.38.06.45h0l.21,1.49A.76.76,0,0,1,546.37,220.79Z"/></g><g id="Capa_3" data-name="Capa 3"><path class="cls-39" d="M486.21,397.13c0,.11,0,.22,0,.33a2.21,2.21,0,0,1-.26.76,2.18,2.18,0,0,1-.37.49h0a2.2,2.2,0,0,1-1.58.65H358.57a8.75,8.75,0,0,1-7.62-4.44c-.13-.24-.26-.48-.37-.73L325.8,339a5.21,5.21,0,0,1,4.76-7.34h79.92a5.21,5.21,0,0,1,3.93,1.78,5.52,5.52,0,0,1,.9,1.45L431.74,375l6.08,14.83.32.78,1.78,4.33H484A2.22,2.22,0,0,1,486.21,397.13Z"/><path class="cls-22" d="M368.49,352.31l.55,21.24a1.47,1.47,0,0,1-1.59,1.54h-5.61l-.51-21.24a1.46,1.46,0,0,1,.36-1.06,1.64,1.64,0,0,1,1.22-.48Zm11,0a1.61,1.61,0,0,0-1.22.49,1.46,1.46,0,0,0-.36,1.05l.34,12.46v0l-.55-.8A3.51,3.51,0,0,0,375,364H369.4l6.59,9.56a3.63,3.63,0,0,0,2.47,1.53h5.82a1.43,1.43,0,0,0,1.37-1.53L385,352.31Zm14.81,13.23a3.53,3.53,0,0,0-2.7-1.55H386l6.62,9.56,0,0a3.54,3.54,0,0,0,2.68,1.51h5.6Z"/></g></svg>